<svg id="Layer_1" data-name="Layer 1" xmlns="http://www.w3.org/2000/svg" viewBox="0 0 294.74 222.79"><defs><style>.cls-1{fill:#ffdc7b;}.cls-2{fill:#fff;}</style></defs><title>CloudyWithSun</title><circle class="cls-1" cx="110.22" cy="101.41" r="26.02" transform="translate(-7.66 193.8) rotate(-80.71)"/><path class="cls-1" d="M110.22,65.5h0a3.12,3.12,0,0,1-3.12-3.12V40.18a3.12,3.12,0,0,1,3.12-3.12h0a3.12,3.12,0,0,1,3.12,3.12v22.2A3.12,3.12,0,0,1,110.22,65.5Z"/><path class="cls-1" d="M110.22,165.75h0a3.12,3.12,0,0,1-3.12-3.12V140.44a3.12,3.12,0,0,1,3.12-3.12h0a3.12,3.12,0,0,1,3.12,3.12v22.19A3.12,3.12,0,0,1,110.22,165.75Z"/><path class="cls-1" d="M135.61,76h0a3.11,3.11,0,0,1,0-4.41L151.3,55.91a3.13,3.13,0,0,1,4.42,0h0a3.13,3.13,0,0,1,0,4.41L140,76A3.11,3.11,0,0,1,135.61,76Z"/><path class="cls-1" d="M64.72,146.9h0a3.11,3.11,0,0,1,0-4.41L80.41,126.8a3.13,3.13,0,0,1,4.42,0h0a3.13,3.13,0,0,1,0,4.41L69.13,146.9A3.11,3.11,0,0,1,64.72,146.9Z"/><path class="cls-1" d="M146.13,101.41h0a3.11,3.11,0,0,1,3.12-3.12h22.19a3.12,3.12,0,0,1,3.12,3.12h0a3.12,3.12,0,0,1-3.12,3.12H149.25A3.12,3.12,0,0,1,146.13,101.41Z"/><path class="cls-1" d="M45.87,101.41h0A3.12,3.12,0,0,1,49,98.29h22.2a3.12,3.12,0,0,1,3.12,3.12h0a3.12,3.12,0,0,1-3.12,3.12H49A3.12,3.12,0,0,1,45.87,101.41Z"/><path class="cls-1" d="M135.61,126.8h0a3.11,3.11,0,0,1,4.41,0l15.7,15.69a3.13,3.13,0,0,1,0,4.41h0a3.13,3.13,0,0,1-4.42,0l-15.69-15.69A3.11,3.11,0,0,1,135.61,126.8Z"/><path class="cls-1" d="M64.72,55.91h0a3.11,3.11,0,0,1,4.41,0L84.83,71.6a3.13,3.13,0,0,1,0,4.41h0a3.13,3.13,0,0,1-4.42,0L64.72,60.32A3.11,3.11,0,0,1,64.72,55.91Z"/><path class="cls-2" d="M229.45,146.89l-.24,0a29.31,29.31,0,0,0-42.51-36.47A40.82,40.82,0,0,0,108.11,126a41.65,41.65,0,0,0,.34,5l-.34,0a27.38,27.38,0,1,0,0,54.75H229.45a19.42,19.42,0,1,0,0-38.83Z"/></svg>