<svg id="Layer_1" data-name="Layer 1" xmlns="http://www.w3.org/2000/svg" viewBox="0 0 287.38 244.38"><defs><style>.cls-1{fill:#ffdc7b;}.cls-2{fill:#fff;}</style></defs><title>CloudyWithMoon</title><path class="cls-1" d="M190.83,109.78a27,27,0,0,0,13-3.31,35,35,0,1,1,0-47.67,27.14,27.14,0,1,0-13,51Z"/><path class="cls-2" d="M208.35,151.87l-.25,0a29.32,29.32,0,0,0-42.51-36.47A40.83,40.83,0,0,0,87,130.94a41.62,41.62,0,0,0,.34,5H87a27.38,27.38,0,1,0,0,54.75H208.35a19.42,19.42,0,0,0,0-38.83Z"/></svg>