<svg id="Layer_1" data-name="Layer 1" xmlns="http://www.w3.org/2000/svg" viewBox="0 0 175.66 190.98"><defs><style>.cls-1{fill:#fff;}</style></defs><title>Snow</title><rect class="cls-1" x="81.04" y="18.73" width="13.58" height="153.52" rx="4.58"/><path class="cls-1" d="M114.53,29.88a4.58,4.58,0,0,1,0,6.48L88,63l-.1-.12-.12.12L61.13,36.37a4.59,4.59,0,0,1,0-6.49l3.13-3.12a4.59,4.59,0,0,1,6.48,0L84.61,40.64a4.58,4.58,0,0,0,6.48,0l13.85-13.87a4.58,4.58,0,0,1,6.48,0Z"/><path class="cls-1" d="M61.13,161.09a4.58,4.58,0,0,1,0-6.48L87.71,128l.1.12.12-.12,26.6,26.59a4.59,4.59,0,0,1,0,6.49l-3.13,3.11a4.58,4.58,0,0,1-6.48,0L91.05,150.34a4.58,4.58,0,0,0-6.48,0L70.72,164.21a4.58,4.58,0,0,1-6.48,0Z"/><rect class="cls-1" x="81.04" y="18.73" width="13.58" height="153.52" rx="4.58" transform="translate(183.32 7.66) rotate(90)"/><path class="cls-1" d="M153.43,122.19a4.57,4.57,0,0,1-6.47,0l-26.6-26.58.12-.1-.12-.12L147,68.79a4.59,4.59,0,0,1,6.49,0l3.12,3.13a4.59,4.59,0,0,1,0,6.48L142.68,92.26a4.59,4.59,0,0,0,0,6.49l13.87,13.85a4.58,4.58,0,0,1,0,6.48Z"/><path class="cls-1" d="M22.22,68.79a4.59,4.59,0,0,1,6.48,0L55.3,95.37l-.12.1.12.12-26.59,26.6a4.59,4.59,0,0,1-6.49,0l-3.12-3.13a4.59,4.59,0,0,1,0-6.48L33,98.71a4.58,4.58,0,0,0,0-6.48L19.11,78.38a4.58,4.58,0,0,1,0-6.48Z"/><path class="cls-1" d="M51.17,132.16h0a4.58,4.58,0,0,1,0-6.48L118,58.82a4.58,4.58,0,0,1,6.48,0h0a4.58,4.58,0,0,1,0,6.48L57.65,132.16A4.58,4.58,0,0,1,51.17,132.16Z"/><path class="cls-1" d="M131.92,75.42A4.58,4.58,0,0,1,127.34,80H103.42V79.9h-.11V56a4.58,4.58,0,0,1,4.58-4.58h0A4.58,4.58,0,0,1,112.49,56V66.26a4.58,4.58,0,0,0,4.59,4.58h10.26a4.58,4.58,0,0,1,4.58,4.58Z"/><path class="cls-1" d="M43.74,115.56A4.58,4.58,0,0,1,48.32,111H72.23v.11h.11V135a4.58,4.58,0,0,1-4.58,4.58h0A4.58,4.58,0,0,1,63.17,135V124.72a4.58,4.58,0,0,0-4.59-4.58H48.32a4.58,4.58,0,0,1-4.58-4.58Z"/><path class="cls-1" d="M51.16,58.83h0a4.58,4.58,0,0,1,6.48,0l66.85,66.85a4.58,4.58,0,0,1,0,6.48h0a4.58,4.58,0,0,1-6.48,0L51.16,65.31A4.58,4.58,0,0,1,51.16,58.83Z"/><path class="cls-1" d="M107.9,139.58a4.58,4.58,0,0,1-4.58-4.58V111.08h.11V111h23.92a4.58,4.58,0,0,1,4.58,4.58h0a4.58,4.58,0,0,1-4.58,4.58H117.06a4.58,4.58,0,0,0-4.58,4.59V135a4.58,4.58,0,0,1-4.58,4.58Z"/><path class="cls-1" d="M67.76,51.4A4.58,4.58,0,0,1,72.34,56V79.89h-.11V80H48.32a4.58,4.58,0,0,1-4.58-4.58h0a4.58,4.58,0,0,1,4.58-4.58H58.6a4.58,4.58,0,0,0,4.58-4.59V56a4.58,4.58,0,0,1,4.58-4.58Z"/></svg>