<svg id="Layer_1" data-name="Layer 1" xmlns="http://www.w3.org/2000/svg" viewBox="0 0 292.7 222.79"><defs><style>.cls-1{fill:#b9d7ff;}.cls-2{fill:#fff;}</style></defs><title>VeryCloudy</title><path class="cls-1" d="M232.84,99.43l-.21,0A24.31,24.31,0,0,0,197.37,69.2a33.86,33.86,0,0,0-65.18,12.87,35.58,35.58,0,0,0,.28,4.16h-.28a22.71,22.71,0,0,0,0,45.41H232.84a16.1,16.1,0,0,0,0-32.2Z"/><path class="cls-2" d="M192.49,120.61l-.25,0a29.32,29.32,0,0,0-42.51-36.47A40.83,40.83,0,0,0,71.14,99.68a41.62,41.62,0,0,0,.34,5l-.34,0a27.38,27.38,0,0,0,0,54.76H192.49a19.42,19.42,0,0,0,0-38.83Z"/></svg>