<svg id="Layer_1" data-name="Layer 1" xmlns="http://www.w3.org/2000/svg" viewBox="0 0 131.1 223.96"><defs><style>.cls-1{fill:#fff;}.cls-2{fill:#b9d7ff;}.cls-3{fill:#3498db;}</style></defs><title>Cold</title><path class="cls-1" d="M80.53,123.55v-90a15,15,0,0,0-30,0v90.05a39.39,39.39,0,1,0,30,0Z"/><path class="cls-2" d="M65.55,192.17a32.19,32.19,0,0,1-12.24-62l4.45-1.83V33.5a7.79,7.79,0,0,1,15.58,0v94.87l4.45,1.83a32.19,32.19,0,0,1-12.24,62Z"/><path class="cls-3" d="M77.79,130.2l-4.45-1.83V114H57.76v14.34l-4.45,1.83a32.2,32.2,0,1,0,24.48,0Z"/><path class="cls-1" d="M65.55,176.33h0a2.8,2.8,0,0,1-2.79-2.79V147.82A2.8,2.8,0,0,1,65.55,145h0a2.8,2.8,0,0,1,2.79,2.79v25.72A2.8,2.8,0,0,1,65.55,176.33Z"/><path class="cls-1" d="M52.62,169.5h0a2.8,2.8,0,0,1,.73-3.87L74.6,151.12a2.81,2.81,0,0,1,3.88.73h0a2.81,2.81,0,0,1-.73,3.88L56.5,170.23A2.79,2.79,0,0,1,52.62,169.5Z"/><path class="cls-1" d="M78.48,169.5h0a2.8,2.8,0,0,0-.73-3.87L56.5,151.12a2.81,2.81,0,0,0-3.88.73h0a2.81,2.81,0,0,0,.73,3.88l21.25,14.5A2.79,2.79,0,0,0,78.48,169.5Z"/></svg>