<svg id="Layer_1" data-name="Layer 1" xmlns="http://www.w3.org/2000/svg" viewBox="0 0 131.1 223.96"><defs><style>.cls-1{fill:#fff;}.cls-2{fill:#b9d7ff;}.cls-3{fill:#e84131;}</style></defs><title>Hot</title><path class="cls-1" d="M80.53,128.64v-90a15,15,0,0,0-30,0v90a39.39,39.39,0,1,0,30,0Z"/><path class="cls-2" d="M65.55,197.26a32.19,32.19,0,0,1-12.24-62l4.45-1.83V38.59a7.79,7.79,0,0,1,15.58,0v94.87l4.45,1.83a32.19,32.19,0,0,1-12.24,62Z"/><path class="cls-3" d="M77.79,135.29l-4.45-1.83V52.38H57.76v81.08l-4.45,1.83a32.2,32.2,0,1,0,24.48,0Z"/><path class="cls-1" d="M65.55,182.38c-24.29,0-5.71-29.44-5.71-29.44v6.82l5.71-13.63,5.71,13.63v-6.82S89.85,182.38,65.55,182.38Z"/></svg>