<svg id="Layer_1" data-name="Layer 1" xmlns="http://www.w3.org/2000/svg" viewBox="0 0 215.09 222.79"><defs><style>.cls-1{fill:#f8ca4d;}</style></defs><title>Sunny</title><circle class="cls-1" cx="107.54" cy="111.99" r="30.67" transform="translate(-38.77 60.04) rotate(-26.61)"/><path class="cls-1" d="M107.54,69.68h0A3.67,3.67,0,0,1,103.87,66V39.85a3.67,3.67,0,0,1,3.67-3.68h0a3.68,3.68,0,0,1,3.68,3.68V66A3.68,3.68,0,0,1,107.54,69.68Z"/><path class="cls-1" d="M107.54,187.82h0a3.67,3.67,0,0,1-3.67-3.68V158a3.67,3.67,0,0,1,3.67-3.68h0a3.68,3.68,0,0,1,3.68,3.68v26.15A3.68,3.68,0,0,1,107.54,187.82Z"/><path class="cls-1" d="M137.47,82.07h0a3.67,3.67,0,0,1,0-5.2L156,58.38a3.67,3.67,0,0,1,5.2,0h0a3.69,3.69,0,0,1,0,5.2l-18.5,18.49A3.66,3.66,0,0,1,137.47,82.07Z"/><path class="cls-1" d="M53.93,165.61h0a3.67,3.67,0,0,1,0-5.2l18.49-18.49a3.67,3.67,0,0,1,5.2,0h0a3.67,3.67,0,0,1,0,5.2L59.13,165.61A3.67,3.67,0,0,1,53.93,165.61Z"/><path class="cls-1" d="M149.86,112h0a3.67,3.67,0,0,1,3.68-3.67h26.15a3.67,3.67,0,0,1,3.68,3.67h0a3.68,3.68,0,0,1-3.68,3.68H153.54A3.68,3.68,0,0,1,149.86,112Z"/><path class="cls-1" d="M31.72,112h0a3.67,3.67,0,0,1,3.68-3.67H61.55A3.67,3.67,0,0,1,65.23,112h0a3.68,3.68,0,0,1-3.68,3.68H35.4A3.68,3.68,0,0,1,31.72,112Z"/><path class="cls-1" d="M137.47,141.92h0a3.66,3.66,0,0,1,5.19,0l18.5,18.49a3.69,3.69,0,0,1,0,5.2h0a3.67,3.67,0,0,1-5.2,0l-18.49-18.49A3.67,3.67,0,0,1,137.47,141.92Z"/><path class="cls-1" d="M53.93,58.38h0a3.67,3.67,0,0,1,5.2,0L77.62,76.87a3.67,3.67,0,0,1,0,5.2h0a3.67,3.67,0,0,1-5.2,0L53.93,63.58A3.67,3.67,0,0,1,53.93,58.38Z"/></svg>