<svg id="Layer_1" data-name="Layer 1" xmlns="http://www.w3.org/2000/svg" viewBox="0 0 144.23 171.55"><defs><style>.cls-1{fill:#b9d7ff;}</style></defs><title>Wet</title><path class="cls-1" d="M24.15,128.24A13.79,13.79,0,0,0,49,140.19c3.29-6.87-.22-31.36-.22-31.36S27.45,121.38,24.15,128.24Z"/><path class="cls-1" d="M60.93,128.24a13.78,13.78,0,1,0,24.84,11.95c3.3-6.87-.22-31.36-.22-31.36S64.22,121.38,60.93,128.24Z"/><path class="cls-1" d="M76.62,95.78c3.3-6.87-.22-31.36-.22-31.36S55.07,77,51.77,83.83a13.79,13.79,0,0,0,24.85,12Z"/><path class="cls-1" d="M98.25,102.23a13.8,13.8,0,0,0,18.4-6.45c3.3-6.87-.22-31.36-.22-31.36S95.1,77,91.8,83.83A13.79,13.79,0,0,0,98.25,102.23Z"/><path class="cls-1" d="M110.47,54.91c3.3-6.86-.22-31.36-.22-31.36S88.92,36.1,85.63,43a13.78,13.78,0,1,0,24.84,11.94Z"/><path class="cls-1" d="M119.81,108.83s-21.33,12.55-24.62,19.41A13.78,13.78,0,1,0,120,140.19C123.33,133.32,119.81,108.83,119.81,108.83Z"/></svg>